<svg xmlns="http://www.w3.org/2000/svg" xml:space="preserve" viewBox="0 0 64 64"><path fill="#3B7EB0" d="M0 0h64v64H0z"/><path fill="#3B7EB0" d="M22 42h8v4h-8z"/><path fill="#3B7EB0" d="M32 42h8v4h-8z" opacity=".5"/><path fill="#3B7EB0" d="M14 14h4v4h-4z"/><path fill="#3B7EB0" d="M16 14h2v36h-2z" opacity=".5"/><path d="M32 42.538a7.303 7.303 0 0 0 7.313-7.313 7.335 7.335 0 0 0-3.657-6.362l-23.669-13.7 13.48 23.353c1.219 2.389 3.681 4.022 6.533 4.022m0-31.689c-4.412 0-8.532 1.219-12.115 3.218l5.119 2.95c2.12-.83 4.558-1.293 6.996-1.293 10.774 0 19.501 8.727 19.501 19.501 0 5.387-2.17 10.263-5.704 13.773h-.024c-.951.95-.951 2.486 0 3.437.95.95 2.51.95 3.461.024a24.3 24.3 0 0 0 7.142-17.234C56.376 21.818 45.407 10.85 32 10.85M7.624 35.225a24.3 24.3 0 0 0 7.142 17.234 2.45 2.45 0 0 0 3.437-.024c.95-.95.95-2.486 0-3.437a19.377 19.377 0 0 1-5.704-13.773c0-2.437.463-4.875 1.316-7.069l-2.95-5.119c-2.022 3.657-3.241 7.752-3.241 12.188Z" style="fill:#fff;fill-opacity:1;stroke-width:2.43762"/></svg>